<svg xmlns="http://www.w3.org/2000/svg" height="20" viewBox="0 -960 960 960" width="20"><path d="M311.798-528Q262-528 227-563.202t-35-85Q192-698 227.202-733t85-35Q362-768 397-732.798t35 85Q432-598 396.798-563t-85 35Zm.202-72q20 0 34-14t14-34q0-20-14-34t-34-14q-20 0-34 14t-14 34q0 20 14 34t34 14Zm335.798 408Q598-192 563-227.202t-35-85Q528-362 563.202-397t85-35Q698-432 733-396.798t35 85Q768-262 732.798-227t-85 35Zm.202-72q20 0 34-14t14-34q0-20-14-34t-34-14q-20 0-34 14t-14 34q0 20 14 34t34 14Zm-405 72-51-51 525-525 51 51-525 525Z"/></svg>